<?xml version="1.0" standalone="no"?><!DOCTYPE svg PUBLIC "-//W3C//DTD SVG 1.1//EN" "http://www.w3.org/Graphics/SVG/1.1/DTD/svg11.dtd"><svg t="1508402163635" class="icon" style="" viewBox="0 0 1024 1024" version="1.1" xmlns="http://www.w3.org/2000/svg" p-id="2374" xmlns:xlink="http://www.w3.org/1999/xlink" width="200" height="200"><defs><style type="text/css"></style></defs><path d="M179.156 946.733c-52.554 0-96.349-40.22-101.89-91.344h-0.535v-676.767c0-56.308 46.118-102.427 102.427-102.427h460.831c56.308 0 102.427 46.118 102.427 102.427v189.123l-51.124-40.039v-149.083c0-28.242-23.058-51.302-51.302-51.302h-460.831c-28.242 0-51.124 23.058-51.124 51.124v212.897h0.18v457.612c2.324 25.92 24.487 46.476 50.947 46.476h20.556v51.124l-20.556 0.18zM812.308 822.497v125.307h134.961v-125.307h-134.961zM929.035 860.573h-98.317v-12.333h98.317v12.333zM656.972 680.567v125.307h134.961v-125.307h-134.961zM774.054 718.641h-97.601v-12.333h97.601v12.333zM657.866 822.497v125.307h134.782v-125.307h-134.782zM774.054 860.573h-97.601v-12.333h97.601v12.333z" p-id="2375"></path><path d="M899.364 628.548l48.082 33.786v-71.681l-346.784-244.001c-6.256-4.827-14.299-7.686-22.702-7.686-8.579 0-16.445 2.86-22.702 7.686l-358.941 252.582v71.681l59.703-42.007v317.828h56.665v-357.687l265.271-186.8 264.737 186.439v151.763h56.665v-111.902zM220.63 261.209h377.712c13.585 0 24.668-11.083 24.668-24.668s-11.083-24.668-24.668-24.668h-377.712c-13.585 0-24.668 11.083-24.668 24.668 0.18 13.585 11.263 24.668 24.668 24.668zM220.63 359.521h164.454c13.585 0 24.668-11.083 24.668-24.487 0-13.585-11.083-24.668-24.668-24.668h-164.454c-13.585 0-24.668 11.083-24.668 24.668 0.18 13.405 11.263 24.487 24.668 24.487z" p-id="2376"></path><path d="M469.099 720.787l-76.865 77.043c-0.714 0.535-1.431 1.074-1.965 1.788-3.574 3.574-5.363 8.4-5.541 13.051v0.535c0 4.645 1.788 9.473 5.541 13.051 0.714 0.714 1.251 1.251 1.965 1.788l77.043 77.043c7.329 7.329 19.127 7.329 26.454 0s7.329-19.127 0-26.454l-46.299-46.299h123.342c10.369 0 18.77-8.4 18.77-18.77s-8.4-18.77-18.77-18.77h-124.591l47.55-47.55c7.329-7.329 7.329-19.127 0-26.454s-19.305-7.329-26.636 0z" p-id="2377"></path></svg>